<svg xmlns="http://www.w3.org/2000/svg" version="1.1" xmlns:xlink="http://www.w3.org/1999/xlink" xmlns:svgjs="http://svgjs.com/svgjs" width="512" height="256" preserveAspectRatio="none" viewBox="0 0 512 256"><g mask="url(&quot;#SvgjsMask1043&quot;)" fill="none"><path d="M 0,5 C 20.6,22.8 61.8,91.8 103,94 C 144.2,96.2 164.8,19.8 206,16 C 247.2,12.2 267.8,73 309,75 C 350.2,77 371.4,26.6 412,26 C 452.6,25.4 492,62.8 512,72L512 256L0 256z" fill="rgba(255, 82, 82, 1)"></path><path d="M 0,199 C 20.6,193.8 61.8,170.4 103,173 C 144.2,175.6 164.8,216.4 206,212 C 247.2,207.6 267.8,145.6 309,151 C 350.2,156.4 371.4,237 412,239 C 452.6,241 492,176.6 512,161L512 256L0 256z" fill="rgba(255, 255, 255, 1)"></path></g><defs><mask id="SvgjsMask1043"><rect width="512" height="256" fill="#ffffff"></rect></mask></defs></svg>